<svg width="58" height="58" fill="none" xmlns="http://www.w3.org/2000/svg"><path d="M17.002 10.451a10.383 10.383 0 00-5.342 1.674l-2.076 1.347a10.342 10.342 0 00-3.77 4.356c-.06.006-.12.006-.179.014h-.002c-.54.077-1.064.27-1.534.575-4.105 2.667-5.345 8.124-2.705 12.15 2.64 4.028 8.142 5.094 12.248 2.427.122-.079.226-.175.337-.267V44.66a4.078 4.078 0 004.06 4.06h1.16a4.078 4.078 0 004.06-4.06V29.51c4.681-3.156 5.99-9.513 2.887-14.246h-.003l-.079-.123c-2.058-3.139-5.548-4.8-9.062-4.69zm23.993 0c-3.515-.11-7.005 1.551-9.063 4.69l-.08.123h-.001c-3.104 4.733-1.795 11.09 2.886 14.246v15.15a4.078 4.078 0 004.06 4.06h1.16a4.078 4.078 0 004.06-4.06V32.727c.11.092.216.188.338.267 4.105 2.667 9.608 1.6 12.248-2.426 2.639-4.027 1.4-9.484-2.706-12.15a3.799 3.799 0 00-1.533-.576h-.003c-.059-.008-.12-.008-.179-.014a10.342 10.342 0 00-3.77-4.356l-2.075-1.346a10.383 10.383 0 00-5.342-1.675zm-23.522 2.305a8.082 8.082 0 016.652 3.656v.003l.081.122a8.002 8.002 0 01-2.356 11.13l-.444.289-1.631 1.06a8.064 8.064 0 01-4.448 1.305 3.66 3.66 0 00.03-.555c-.044-1.59-.479-4.093-2.261-6.81-1.635-2.493-3.532-3.847-4.953-4.584a7.986 7.986 0 012.705-2.954l2.076-1.348a8.103 8.103 0 014.549-1.314zm23.05 0a8.103 8.103 0 014.55 1.314l2.075 1.348a7.985 7.985 0 012.705 2.954c-1.42.737-3.318 2.091-4.952 4.583-1.783 2.718-2.217 5.22-2.262 6.81a3.64 3.64 0 00.03.554 8.061 8.061 0 01-4.447-1.303l-1.632-1.06-.444-.288h-.002a8.003 8.003 0 01-2.354-11.131l.002-.002.08-.12v-.003a8.082 8.082 0 016.651-3.656zm-21.154 2.41a1.729 1.729 0 00-.99.229l-3.015 1.74a1.74 1.74 0 001.74 3.013l3.015-1.74a1.74 1.74 0 00-.75-3.242zm19.258 0a1.74 1.74 0 00-.75 3.242l3.016 1.74a1.74 1.74 0 001.74-3.013l-3.016-1.74a1.729 1.729 0 00-.99-.229zM5.96 20.137c.274-.039.552.001.798.118h.002c1.132.533 2.873 1.654 4.395 3.974 1.521 2.32 1.848 4.356 1.883 5.6.008.297-.08.58-.252.827-.105.15-.24.285-.405.392-3.082 2.002-7.114 1.196-9.047-1.753-1.933-2.95-1.052-6.93 2.03-8.931a1.48 1.48 0 01.596-.227zm45.668 0a1.47 1.47 0 011.006.227c3.082 2.001 3.963 5.981 2.03 8.93-1.933 2.95-5.964 3.756-9.046 1.754a1.465 1.465 0 01-.406-.392 1.369 1.369 0 01-.252-.827c.035-1.244.362-3.28 1.883-5.6 1.522-2.32 3.264-3.44 4.395-3.974h.003c.122-.058.253-.098.387-.118zM5.855 24.424a1.16 1.16 0 00-1.135 1.062 3.952 3.952 0 00.614 2.542v.002a3.956 3.956 0 002.082 1.586 1.161 1.161 0 10.72-2.204 1.592 1.592 0 01-1.108-1.702 1.16 1.16 0 00-1.173-1.286zm46.252 0a1.16 1.16 0 00-1.14 1.286 1.6 1.6 0 01-1.107 1.702 1.16 1.16 0 10.72 2.204 3.956 3.956 0 002.083-1.586v-.002c.505-.775.698-1.68.614-2.542a1.16 1.16 0 00-1.17-1.062zM20.94 31.019V44.66c0 .976-.764 1.74-1.74 1.74h-1.16c-.975 0-1.74-.764-1.74-1.74V32.596a10.4 10.4 0 004.64-1.577zm16.118 0a10.4 10.4 0 004.64 1.577V44.66c0 .976-.765 1.74-1.74 1.74h-1.16c-.975 0-1.74-.764-1.74-1.74V31.02z" fill="#2274EE"/></svg>