<svg width="21" height="26" fill="none" xmlns="http://www.w3.org/2000/svg"><path d="M17.27 24.171c-1.333 1.277-2.805 1.078-4.207.476-1.49-.614-2.854-.653-4.428 0-1.96.836-3.001.593-4.182-.476C-2.214 17.395-1.23 7.074 6.347 6.685c1.838.098 3.124 1.003 4.207 1.079 1.609-.323 3.149-1.249 4.87-1.127 2.07.165 3.617.971 4.65 2.421-4.256 2.526-3.247 8.063.662 9.617-.782 2.028-1.786 4.032-3.469 5.513l.003-.017zM10.406 6.613C10.206 3.6 12.68 1.124 15.523.88c.391 3.473-3.198 6.072-5.117 5.732z" fill="#35394A"/></svg>