<svg width="58" height="58" fill="none" xmlns="http://www.w3.org/2000/svg"><path d="M9.28 13.92c-3.19 0-5.8 2.61-5.8 5.8v18.56c0 3.19 2.61 5.8 5.8 5.8H46.4c3.19 0 5.8-2.61 5.8-5.8V34.8h2.32c.64 0 1.16-.521 1.16-1.16v-9.28c0-.639-.52-1.16-1.16-1.16H52.2v-3.48c0-3.19-2.61-5.8-5.8-5.8H9.28zm0 2.32H46.4a3.464 3.464 0 013.48 3.48v4.64c0 .639.522 1.16 1.16 1.16h2.32v6.96h-2.32c-.638 0-1.16.521-1.16 1.16v4.64a3.464 3.464 0 01-3.48 3.48H9.28a3.464 3.464 0 01-3.48-3.48V19.72a3.464 3.464 0 013.48-3.48zm-.108 2.284c-.05.009-.1.022-.145.036-.54.122-.92.607-.907 1.16v18.56a1.17 1.17 0 00.576 1.02c.362.208.806.208 1.169 0 .362-.213.58-.603.575-1.02V19.72a1.16 1.16 0 00-1.269-1.196zm4.64 0c-.05.009-.1.022-.145.036a1.16 1.16 0 00-.906 1.16v18.56c-.005.417.212.806.575 1.02.362.208.806.208 1.169 0 .362-.213.58-.603.575-1.02V19.72a1.16 1.16 0 00-1.269-1.196zm4.64 0c-.05.009-.1.022-.145.036a1.16 1.16 0 00-.906 1.16v18.56c-.005.417.212.806.575 1.02.362.208.806.208 1.169 0 .363-.213.58-.603.576-1.02V19.72a1.16 1.16 0 00-1.269-1.196zm4.64 0c-.05.009-.1.022-.145.036a1.16 1.16 0 00-.906 1.16v18.56c-.005.417.212.806.575 1.02.362.208.806.208 1.169 0 .363-.213.58-.603.575-1.02V19.72a1.16 1.16 0 00-1.269-1.196zm4.64 0c-.05.009-.1.022-.145.036-.54.122-.92.607-.907 1.16v18.56a1.17 1.17 0 00.576 1.02c.362.208.806.208 1.169 0 .363-.213.58-.603.575-1.02V19.72a1.16 1.16 0 00-1.269-1.196zm4.64 0c-.05.009-.1.022-.145.036a1.16 1.16 0 00-.906 1.16v18.56c-.005.417.212.806.575 1.02.362.208.806.208 1.169 0 .363-.213.58-.603.576-1.02V19.72a1.16 1.16 0 00-1.269-1.196zm4.64 0c-.05.009-.1.022-.145.036a1.16 1.16 0 00-.906 1.16v18.56c-.005.417.212.806.575 1.02.362.208.806.208 1.169 0 .363-.213.58-.603.576-1.02V19.72a1.16 1.16 0 00-1.269-1.196zm4.64 0c-.05.009-.1.022-.145.036-.54.122-.92.607-.907 1.16v18.56a1.17 1.17 0 00.576 1.02c.362.208.806.208 1.169 0 .363-.213.58-.603.575-1.02V19.72a1.16 1.16 0 00-1.269-1.196zm4.64 0c-.05.009-.1.022-.145.036-.54.122-.92.607-.907 1.16v18.56a1.17 1.17 0 00.576 1.02c.362.208.806.208 1.169 0 .362-.213.58-.603.575-1.02V19.72a1.16 1.16 0 00-1.269-1.196z" fill="#2274EE"/></svg>