<svg width="124" height="124" fill="none" xmlns="http://www.w3.org/2000/svg"><path d="M37.37 9.49a2 2 0 10-1.698-3.622l1.699 3.621zM62 4a57.998 57.998 0 0138.703 14.802l2.67-2.979A62.002 62.002 0 0062 0v4zm38.703 14.802a57.998 57.998 0 0118.949 36.852l3.976-.438a62.001 62.001 0 00-20.255-39.393l-2.67 2.98zm18.949 36.852a57.996 57.996 0 01-10.479 40.09l3.254 2.327a62.005 62.005 0 0011.201-42.855l-3.976.438zm-10.479 40.09a57.995 57.995 0 01-34.556 22.867l.87 3.904a62 62 0 0036.94-24.444l-3.254-2.327zm-34.556 22.867a58.001 58.001 0 01-40.997-6.028l-1.957 3.488a61.997 61.997 0 0043.824 6.444l-.87-3.904zm-40.997-6.028A58.004 58.004 0 017.11 80.736l-3.786 1.292a62 62 0 0028.34 34.043l1.956-3.488zM7.11 80.736a58 58 0 011.506-41.41l-3.682-1.564a62 62 0 00-1.61 44.266l3.785-1.292zm1.506-41.41A58 58 0 0137.37 9.489l-1.699-3.621A62 62 0 004.934 37.762l3.682 1.564z" fill="#2274EE"/></svg>