<svg width="58" height="60" fill="none" xmlns="http://www.w3.org/2000/svg"><path d="M29 2.105c-10.798 0-19.702 8.248-20.771 18.795a3.521 3.521 0 00-2.248 2.254c-1.654.332-3.09 1.468-4.096 2.98C.685 27.94 0 30.316 0 32.934c0 2.617.684 4.994 1.885 6.798 1.006 1.513 2.442 2.65 4.096 2.98.453 1.4 1.758 2.437 3.299 2.437 1.908 0 3.48-1.577 3.48-3.49v-17.45c0-1.445-.91-2.672-2.175-3.199C11.6 11.684 19.43 4.432 29 4.432c9.57 0 17.4 7.252 18.415 16.577-1.264.527-2.175 1.754-2.175 3.2v17.449c0 1.486.965 2.735 2.284 3.235-.159 2.222-.911 3.895-2.103 5.09-1.346 1.35-3.312 2.145-5.981 2.145h-3.697c-.485-1.346-1.763-2.327-3.263-2.327h-5.8c-1.908 0-3.48 1.577-3.48 3.49 0 1.913 1.572 3.49 3.48 3.49h5.8c1.5 0 2.778-.982 3.263-2.327h3.697c3.131 0 5.805-.95 7.649-2.8 1.658-1.662 2.583-3.989 2.755-6.725a3.51 3.51 0 002.175-2.217c1.654-.332 3.09-1.468 4.096-2.981 1.2-1.804 1.885-4.18 1.885-6.798 0-2.618-.684-4.994-1.885-6.798-1.006-1.513-2.442-2.65-4.096-2.981A3.52 3.52 0 0049.77 20.9C48.701 10.353 39.798 2.105 29 2.105zM9.28 23.045c.652 0 1.16.509 1.16 1.163v17.45c0 .654-.508 1.163-1.16 1.163-.652 0-1.16-.509-1.16-1.163v-17.45c0-.654.508-1.163 1.16-1.163zm39.44 0c.653 0 1.16.509 1.16 1.163v17.45c0 .654-.508 1.163-1.16 1.163-.652 0-1.16-.509-1.16-1.163v-17.45c0-.654.508-1.163 1.16-1.163zM5.8 25.625V40.24c-.72-.31-1.405-.895-1.994-1.781-.897-1.35-1.486-3.327-1.486-5.526 0-2.2.59-4.176 1.486-5.526.59-.886 1.274-1.472 1.994-1.781zm46.4 0c.72.31 1.405.896 1.994 1.782.897 1.35 1.486 3.326 1.486 5.526 0 2.2-.59 4.176-1.486 5.526-.59.886-1.274 1.472-1.994 1.78V25.627zM26.68 52.128h5.8c.653 0 1.16.51 1.16 1.164 0 .654-.508 1.163-1.16 1.163h-5.8c-.652 0-1.16-.509-1.16-1.163 0-.655.508-1.163 1.16-1.163z" fill="#2274EE"/></svg>