<svg width="58" height="60" fill="none" xmlns="http://www.w3.org/2000/svg"><path d="M33.386 3.305a4.35 4.35 0 00-.87.145L12.071 9.267c-2.297.654-3.661 3.076-3.009 5.38l9.57 33.736c.018.114.055.223.11.327l1.377 4.908c.652 2.304 3.067 3.635 5.365 2.981l20.445-5.817c2.297-.654 3.66-3.076 3.008-5.38l-1.34-4.726a1.178 1.178 0 00-.218-.763L37.88 6.43a4.33 4.33 0 00-3.625-3.126 4.282 4.282 0 00-.87 0zm.181 2.29a2.033 2.033 0 012.103 1.49l9.244 32.719-24.36 6.907-9.244-32.718a2.022 2.022 0 011.414-2.509l20.445-5.816a1.74 1.74 0 01.398-.073zm10.73 7.743a1.162 1.162 0 00-.906 1.527l5.8 20.504a1.17 1.17 0 102.248-.655l-5.8-20.503a1.16 1.16 0 00-1.124-.873h-.218zm6.562 3.672a1.162 1.162 0 00-.907 1.527l2.9 10.252a1.17 1.17 0 102.248-.655l-2.9-10.251a1.16 1.16 0 00-1.124-.873h-.217zM7.576 23.808c-.036.01-.072.023-.109.037a1.167 1.167 0 00-.906 1.49l5.8 20.503c.181.623.83.982 1.45.8.62-.182.979-.831.798-1.454l-5.8-20.503a1.16 1.16 0 00-1.124-.873h-.109zm-3.661 6.58c-.036.01-.073.023-.109.036a1.161 1.161 0 00-.906 1.491l2.9 10.252a1.17 1.17 0 102.247-.655l-2.9-10.251a1.16 1.16 0 00-1.123-.873h-.11zm41.651 11.67l1.124 3.998a2.022 2.022 0 01-1.414 2.509L24.831 54.38c-1.092.31-2.193-.322-2.501-1.417l-1.124-4 24.36-6.906zm-11.455 4.835c-.104.009-.222.004-.326.036-.847.24-1.328 1.15-1.088 2 .24.85 1.11 1.33 1.958 1.09a1.58 1.58 0 001.087-1.963 1.575 1.575 0 00-1.63-1.163z" fill="#2274EE"/></svg>