<svg width="32" height="32" fill="none" xmlns="http://www.w3.org/2000/svg"><g clip-path="url(#clip0)"><path d="M16 .64c-3.53 0-6.4 2.87-6.4 6.4v1.28H4.54L1.84 32h28.32l-2.7-23.68h-3.78v3.84c0 1.06-.86 1.92-1.92 1.92-.143 0-.288-.01-.42-.04a1.916 1.916 0 01-.22-3.68v1.8a.64.64 0 101.28 0V7.04c0-3.53-2.87-6.4-6.4-6.4zm0 1.28a5.127 5.127 0 015.12 5.12v1.28h-8.96v3.84c0 1.06-.86 1.92-1.92 1.92a1.93 1.93 0 01-.42-.04 1.916 1.916 0 01-.22-3.68v1.8a.641.641 0 001.28 0V7.04A5.127 5.127 0 0116 1.92z" fill="#35394A"/></g><defs><clipPath id="clip0"><path fill="#fff" d="M0 0h32v32H0z"/></clipPath></defs></svg>