<svg width="58" height="59" fill="none" xmlns="http://www.w3.org/2000/svg"><path d="M24.36 2.933c-5.112 0-9.28 4.181-9.28 9.307 0 3.435 1.866 6.425 4.64 8.034v17.958l-5.982-6.034a4.645 4.645 0 00-6.561 0c-1.804 1.808-1.804 4.771 0 6.58L20.336 52.01a15.057 15.057 0 0010.657 4.435h8.446c5.75 0 10.44-4.703 10.44-10.47V30.854c0-2.559-2.089-4.654-4.64-4.654a4.58 4.58 0 00-2.61.8c-.634-1.813-2.333-3.126-4.35-3.126-1.146 0-2.161.463-2.972 1.163-.807-1.377-2.288-2.327-3.988-2.327-.852 0-1.631.25-2.32.655v-3.09c2.773-1.609 4.64-4.599 4.64-8.034 0-5.126-4.169-9.307-9.28-9.307zm0 2.327a6.954 6.954 0 016.96 6.98A6.933 6.933 0 0129 17.438V12.24c0-2.559-2.09-4.653-4.64-4.653-2.552 0-4.64 2.094-4.64 4.653v5.198a6.926 6.926 0 01-2.32-5.198 6.954 6.954 0 016.96-6.98zm0 4.653a2.305 2.305 0 012.32 2.327v7.198c-.019.122-.019.24 0 .363v9.888a1.162 1.162 0 001.413 1.164c.118-.032.227-.082.326-.146a.534.534 0 00.073-.036 1.14 1.14 0 00.181-.182c.209-.213.322-.5.326-.8v-2.326c0-1.3 1.024-2.327 2.32-2.327a2.305 2.305 0 012.32 2.327v2.326c.005.073.018.146.036.218.019.114.055.223.11.328.045.104.108.204.18.29a1.1 1.1 0 00.182.146c.036.027.072.05.108.073.105.054.213.09.327.109.154.031.317.031.471 0 .118-.032.227-.082.326-.146a.534.534 0 00.073-.036 1.14 1.14 0 00.181-.182c.209-.213.322-.5.326-.8v-1.163c0-1.3 1.024-2.326 2.32-2.326a2.305 2.305 0 012.32 2.326v3.49a1.17 1.17 0 00.576 1.022c.362.21.806.21 1.169 0a1.17 1.17 0 00.575-1.022v-.981c.005-.06.005-.123 0-.182 0-1.3 1.024-2.327 2.32-2.327a2.305 2.305 0 012.32 2.327v15.123a8.112 8.112 0 01-8.12 8.143h-8.446a12.746 12.746 0 01-9.026-3.745L8.808 37.142a2.292 2.292 0 010-3.272 2.277 2.277 0 013.262 0l7.83 7.816a1.1 1.1 0 00.146.182.49.49 0 00.072.072c.154.132.344.219.544.255.154.032.317.032.471 0 .073-.018.15-.041.218-.073.036-.023.072-.045.108-.072.331-.191.549-.528.58-.91v-.108a.785.785 0 000-.146V19.73a1.234 1.234 0 000-.364V12.24c0-1.3 1.024-2.327 2.32-2.327z" fill="#2274EE"/></svg>