<svg width="58" height="59" fill="none" xmlns="http://www.w3.org/2000/svg"><path d="M11.6 5.26c-3.83 0-6.96 3.139-6.96 6.98v5.816a1.167 1.167 0 00.713 1.09 1.157 1.157 0 001.524-.64c.058-.143.086-.296.084-.45V12.24a4.63 4.63 0 014.64-4.654h5.8a1.157 1.157 0 001.086-.714 1.167 1.167 0 00-.637-1.528 1.157 1.157 0 00-.45-.084h-5.8zm29 0a1.157 1.157 0 00-1.086.714 1.167 1.167 0 00.638 1.529c.142.057.295.086.449.083h5.8a4.63 4.63 0 014.64 4.654v5.816a1.168 1.168 0 00.712 1.09 1.157 1.157 0 001.524-.64c.057-.143.086-.296.084-.45V12.24c0-3.841-3.13-6.98-6.96-6.98h-5.8zM28.984 15.714a1.158 1.158 0 00-1.142 1.179v25.593a1.168 1.168 0 00.712 1.09 1.157 1.157 0 001.524-.64c.057-.143.086-.296.084-.45V16.893a1.165 1.165 0 00-1.178-1.18zm-6.96 5.816a1.158 1.158 0 00-1.142 1.18v13.96a1.168 1.168 0 00.712 1.089 1.157 1.157 0 001.524-.64c.057-.143.086-.296.084-.45V22.71a1.164 1.164 0 00-1.178-1.179zm13.92 0a1.158 1.158 0 00-1.142 1.18v13.96a1.168 1.168 0 00.712 1.089 1.157 1.157 0 001.524-.64c.057-.143.086-.296.084-.45V22.71a1.164 1.164 0 00-1.178-1.179zm-20.88 4.653a1.159 1.159 0 00-1.142 1.18v4.653a1.168 1.168 0 00.712 1.09 1.157 1.157 0 001.524-.64c.058-.143.086-.296.084-.45v-4.653a1.165 1.165 0 00-1.178-1.18zm27.84 0a1.159 1.159 0 00-1.142 1.18v4.653a1.168 1.168 0 00.712 1.09 1.157 1.157 0 001.524-.64c.057-.143.086-.296.084-.45v-4.653a1.165 1.165 0 00-1.178-1.18zM5.783 38.98a1.159 1.159 0 00-1.142 1.179v6.98c0 3.84 3.13 6.98 6.96 6.98h5.8a1.156 1.156 0 001.086-.715 1.167 1.167 0 00-.637-1.528 1.156 1.156 0 00-.45-.084h-5.8a4.63 4.63 0 01-4.64-4.653v-6.98a1.166 1.166 0 00-1.177-1.18zm46.4 0a1.159 1.159 0 00-1.142 1.179v6.98a4.63 4.63 0 01-4.64 4.653h-5.8a1.156 1.156 0 00-1.087.714 1.167 1.167 0 00.638 1.529c.142.057.295.086.449.084h5.8c3.83 0 6.96-3.14 6.96-6.98v-6.98a1.164 1.164 0 00-1.178-1.18z" fill="#2274EE"/></svg>