<svg width="58" height="58" fill="none" xmlns="http://www.w3.org/2000/svg"><path d="M29 1.16c-1.155 0-2.282.12-3.383.31a1.16 1.16 0 00-.535.082C16.38 3.312 9.763 10.822 9.327 19.93l-2.762 1.02-.006.001a1.16 1.16 0 00-.583.474l-5.8 9.28a1.16 1.16 0 00.533 1.683l5.09 2.144V47.56a1.16 1.16 0 00.76 1.087l22.04 8.12c.258.096.543.096.802 0l22.04-8.12a1.16 1.16 0 00.758-1.087V34.533l5.091-2.144a1.16 1.16 0 00.533-1.683l-5.8-9.28a1.16 1.16 0 00-.628-.49l-2.723-1.003c-.316-6.614-3.888-12.372-9.16-15.71a1.16 1.16 0 00-.508-.308A19.576 19.576 0 0029 1.16zm0 2.32c2.737 0 5.315.648 7.617 1.77l-3.725 3.144a1.16 1.16 0 00-.413.886v4.64a1.16 1.16 0 001.16 1.16h4.16l2.973 2.972-1.52.508h-5.613a1.16 1.16 0 00-1.16 1.16v4.64c0 .273.097.537.272.745l1.561 1.863L29 28.925l-6.96-2.565V23.2a1.16 1.16 0 00-.517-.965l-2.963-1.976v-1.953l3.76-.94a1.16 1.16 0 00.648-.43l3.48-4.64c.15-.201.232-.445.232-.696V3.652c.76-.101 1.53-.172 2.32-.172zm-4.64.643v7.09l-3.002 4-4.24 1.06a1.16 1.16 0 00-.878 1.127v3.48a1.16 1.16 0 00.516.965l2.963 1.976v1.685l-8.015-2.954a15.854 15.854 0 01-.104-1.672c0-8.014 5.399-14.728 12.76-16.757zm14.404 2.348A17.367 17.367 0 0146.4 20.88c0 .556-.045 1.113-.105 1.672l-9.67 3.564-1.825-2.177v-3.06h4.64a1.15 1.15 0 00.367-.058l3.48-1.16a1.16 1.16 0 00.453-1.921L39.1 13.1a1.16 1.16 0 00-.82-.34H34.8V9.82l3.964-3.35zM7.444 23.454l12.858 4.737c.116.067.242.114.374.138l6.652 2.45-4.638 8.346-19.824-8.347 4.578-7.324zm43.11 0l4.58 7.324-19.825 8.35-4.637-8.35 5.96-2.195.016-.007 13.907-5.122zM27.84 34.639v19.376L8.12 46.75V35.51l14.63 6.16a1.16 1.16 0 001.466-.505l3.625-6.525zm2.32 0l3.626 6.525a1.16 1.16 0 001.465.505l14.63-6.16v11.242l-19.72 7.264V34.639z" fill="#2274EE"/></svg>