<svg width="167" height="53" fill="none" xmlns="http://www.w3.org/2000/svg"><path d="M55.696 39.36c-1.56 0-3.012-.252-4.356-.756-1.344-.504-2.424-1.224-3.24-2.16l2.412-3.024c1.8 1.632 3.708 2.448 5.724 2.448 1.008 0 1.8-.216 2.376-.648.576-.432.864-.996.864-1.692 0-.6-.264-1.044-.792-1.332-.504-.288-1.332-.6-2.484-.936-1.248-.408-2.28-.792-3.096-1.152-.792-.384-1.38-.828-1.764-1.332-.384-.504-.576-1.164-.576-1.98 0-1.344.372-2.544 1.116-3.6.768-1.056 1.788-1.884 3.06-2.484 1.296-.624 2.736-.936 4.32-.936 1.368 0 2.592.216 3.672.648 1.08.408 2.04 1.056 2.88 1.944l-2.556 2.916c-.792-.72-1.548-1.236-2.268-1.548a5.148 5.148 0 00-2.268-.504c-.936 0-1.716.204-2.34.612-.624.408-.936.996-.936 1.764 0 .552.216.96.648 1.224.456.264 1.236.552 2.34.864 1.992.576 3.468 1.212 4.428 1.908.984.696 1.476 1.692 1.476 2.988s-.36 2.46-1.08 3.492c-.72 1.008-1.728 1.812-3.024 2.412-1.296.576-2.808.864-4.536.864zm12.152-3.348v-.648c.024-.216.072-.444.144-.684l2.304-10.836h-2.34l.792-3.708h2.304l1.296-6.12h4.824l-1.296 6.12h3.78l-.792 3.708H75.12l-1.98 9.216a7.034 7.034 0 00-.072.324v.252c0 .456.132.78.396.972.264.192.588.288.972.288.456 0 .924-.084 1.404-.252.504-.168.912-.312 1.224-.432l.144 3.816c-.696.336-1.536.636-2.52.9s-1.956.396-2.916.396c-1.128 0-2.064-.252-2.808-.756-.744-.528-1.116-1.38-1.116-2.556zm19.916 3.348c-1.824 0-3.324-.36-4.5-1.08-1.152-.72-2.004-1.68-2.556-2.88-.552-1.224-.828-2.568-.828-4.032 0-1.536.276-3 .828-4.392a11.911 11.911 0 012.412-3.708 10.993 10.993 0 013.636-2.52c1.416-.624 2.964-.936 4.644-.936 1.824 0 3.312.36 4.464 1.08 1.176.72 2.04 1.68 2.592 2.88s.828 2.544.828 4.032c0 1.536-.288 3-.864 4.392a11.4 11.4 0 01-2.376 3.708 11.35 11.35 0 01-3.672 2.556c-1.392.6-2.928.9-4.608.9zm.72-4.104c1.008 0 1.944-.3 2.808-.9.888-.6 1.608-1.416 2.16-2.448s.828-2.208.828-3.528c0-1.32-.312-2.388-.936-3.204-.624-.84-1.512-1.26-2.664-1.26-.984 0-1.92.3-2.808.9-.888.6-1.608 1.428-2.16 2.484-.552 1.032-.828 2.208-.828 3.528 0 1.32.312 2.388.936 3.204.624.816 1.512 1.224 2.664 1.224zm15.802-15.12h4.428l-.864 4.032c.912-1.296 1.932-2.316 3.06-3.06 1.152-.768 2.28-1.152 3.384-1.152.408 0 .696.024.864.072l-.9 4.284a8.787 8.787 0 00-3.852.864c-1.2.552-2.16 1.356-2.88 2.412L105.114 39h-4.824l3.996-18.864zm17.857 19.224c-1.608 0-2.988-.336-4.14-1.008a7.072 7.072 0 01-2.664-2.844c-.6-1.2-.9-2.58-.9-4.14 0-1.56.3-3.036.9-4.428.6-1.392 1.44-2.616 2.52-3.672 1.08-1.08 2.34-1.92 3.78-2.52 1.44-.624 3-.936 4.68-.936 2.04 0 3.672.456 4.896 1.368 1.224.888 1.836 2.184 1.836 3.888 0 4.056-3.624 6.084-10.872 6.084h-1.404c-.48-.024-.984-.048-1.512-.072-.024.144-.036.3-.036.468 0 1.248.3 2.28.9 3.096.624.792 1.584 1.188 2.88 1.188.96 0 1.86-.228 2.7-.684a5.24 5.24 0 002.052-1.908l3.816 1.188a10.163 10.163 0 01-2.484 2.592 12.927 12.927 0 01-3.276 1.728c-1.2.408-2.424.612-3.672.612zm3.492-16.056a5.17 5.17 0 00-3.528 1.332c-1.008.888-1.764 2.016-2.268 3.384l1.188.072h1.188c2.328 0 3.948-.24 4.86-.72.936-.48 1.404-1.14 1.404-1.98 0-.696-.264-1.212-.792-1.548-.528-.36-1.212-.54-2.052-.54zm11.874 1.512h-2.304l.792-3.672h2.304l.252-1.152c.456-2.352 1.392-4.212 2.808-5.58 1.416-1.368 3.036-2.052 4.86-2.052 1.464 0 2.88.372 4.248 1.116l-1.692 3.636a4.177 4.177 0 00-2.34-.684c-1.536 0-2.544 1.128-3.024 3.384l-.288 1.332h4.32l-.792 3.672h-4.32l-4.644 21.816h-4.824l4.644-21.816zm7.536 18.72c.96-.072 1.74-.192 2.34-.36.624-.168 1.152-.444 1.584-.828.456-.36.936-.876 1.44-1.548l1.044-1.404-3.132-19.26h4.932l1.62 14.688 1.224-2.016a60.34 60.34 0 002.484-4.5 32.967 32.967 0 001.728-3.996 40.6 40.6 0 001.188-4.176h4.68a40.373 40.373 0 01-1.08 3.276 28.708 28.708 0 01-1.368 3.168 51.278 51.278 0 01-2.016 3.744 182.994 182.994 0 01-2.952 4.968l-2.88 4.644c-1.128 1.8-2.208 3.228-3.24 4.284-1.032 1.056-2.112 1.812-3.24 2.268-1.128.48-2.388.732-3.78.756l-.576-3.708z" fill="url(#paint0_linear)"/><path fill-rule="evenodd" clip-rule="evenodd" d="M0 45.832l4.263-32.81 5.869-1.863C12.045 1.05 17.985.218 17.985.218c3.01-.896 3.82 1.26 3.82 1.26 3.897-.408 4.915 4.064 4.915 4.064l.035.336 1.957-.616 3.253 2.967h3.897c.43 3.052.896 6.47 1.376 10.096C38.32 26.428 39.818 37.9 41 46.261l-12.396 6.614L0 45.832zM25.458 6.287l-2.321.738c-.058-1.52-.194-3.41-.509-4.185 0 0 2.25.76 2.83 3.447zM21.69 7.483L17.204 8.91c.924-5.367 3.876-5.66 3.876-5.66.43.924.574 2.687.61 4.234zm-6.47 2.05l-3.518 1.117c-.165-1.067 4.02-11.12 8.383-8.806 0 0-3.79 1.269-4.865 7.689z" fill="url(#paint1_linear)"/><path d="M13.182 38.438a7.252 7.252 0 01-3.15-.693 5.817 5.817 0 01-2.345-1.978l1.745-2.77c1.302 1.495 2.683 2.242 4.14 2.242.73 0 1.303-.198 1.72-.593.416-.396.625-.913.625-1.55 0-.55-.191-.956-.573-1.22-.365-.264-.964-.55-1.797-.858a21.714 21.714 0 01-2.24-1.055c-.573-.351-.998-.758-1.276-1.22-.278-.461-.416-1.066-.416-1.813 0-1.231.269-2.33.807-3.297a6.182 6.182 0 012.213-2.276c.938-.571 1.98-.857 3.125-.857.99 0 1.875.198 2.657.593.78.374 1.475.968 2.083 1.781l-1.849 2.67c-.573-.659-1.12-1.131-1.64-1.417a3.088 3.088 0 00-1.641-.462c-.677 0-1.241.187-1.693.561-.451.374-.677.912-.677 1.616 0 .505.156.879.469 1.12.33.243.894.506 1.693.792 1.44.528 2.508 1.11 3.203 1.748.711.637 1.067 1.55 1.067 2.737s-.26 2.253-.781 3.198a5.867 5.867 0 01-2.188 2.21c-.937.527-2.03.79-3.28.79z" fill="#fff"/><path d="M31.966 8.229l-3.253-2.967-.108 47.614 12.396-6.614C39.82 37.9 38.322 26.43 37.24 18.325c-.48-3.626-.946-7.044-1.376-10.096h-3.898z" fill="#fff" fill-opacity=".19"/><path fill-rule="evenodd" clip-rule="evenodd" d="M35.864 8.229h-3.898l2.524 36.77L41 46.261c-.896-6.34-1.974-14.469-2.914-21.561v-.002l-.847-6.374c-.48-3.626-.946-7.044-1.376-10.096z" fill="#2274EE"/><path fill-rule="evenodd" clip-rule="evenodd" d="M35.864 8.229h-3.898l2.524 36.77L41 46.261c-.896-6.34-1.974-14.469-2.914-21.561v-.002l-.847-6.374c-.48-3.626-.946-7.044-1.376-10.096z" fill="url(#paint2_linear)"/><path d="M28.605 52.876l6.198-3.307-.313-4.57-5.885 7.877z" fill="#2274EE"/><path d="M28.605 52.876l6.198-3.307-.313-4.57-5.885 7.877z" fill="url(#paint3_linear)"/><path d="M34.802 49.569L41 46.262l-6.512-1.264.314 4.571z" fill="#1E61C6"/><path d="M34.802 49.569L41 46.262l-6.512-1.264.314 4.571z" fill="url(#paint4_linear)"/><defs><linearGradient id="paint0_linear" x1="49" y1="26" x2="166" y2="26" gradientUnits="userSpaceOnUse"><stop stop-color="#2274EE"/><stop offset="1" stop-color="#22C9EE"/></linearGradient><linearGradient id="paint1_linear" x1="20.5" y1="0" x2="20.5" y2="52.876" gradientUnits="userSpaceOnUse"><stop stop-color="#2274EE"/><stop offset="1" stop-color="#2298EE"/></linearGradient><linearGradient id="paint2_linear" x1="34.803" y1="5.262" x2="34.803" y2="52.876" gradientUnits="userSpaceOnUse"><stop stop-color="#2274EE"/><stop offset="1" stop-color="#2298EE"/></linearGradient><linearGradient id="paint3_linear" x1="31.704" y1="44.998" x2="31.704" y2="52.876" gradientUnits="userSpaceOnUse"><stop stop-color="#3787FF"/><stop offset="1" stop-color="#28A5FF"/></linearGradient><linearGradient id="paint4_linear" x1="37.744" y1="44.998" x2="37.744" y2="49.569" gradientUnits="userSpaceOnUse"><stop stop-color="#2274EE"/><stop offset="1" stop-color="#2298EE"/></linearGradient></defs></svg>