<svg width="113" height="113" fill="none" xmlns="http://www.w3.org/2000/svg"><path d="M59.13 8.231l5.98 6.675a3.531 3.531 0 003.683 1.013l8.765-2.739a3.53 3.53 0 014.499 2.598l1.963 8.759a3.53 3.53 0 002.673 2.673l8.776 1.967a3.531 3.531 0 012.602 4.485l-2.707 8.789a3.531 3.531 0 001.01 3.662l6.651 5.994a3.53 3.53 0 010 5.246l-6.65 5.994a3.528 3.528 0 00-1.01 3.662l2.706 8.79a3.53 3.53 0 01-2.602 4.484l-8.776 1.967a3.53 3.53 0 00-2.673 2.673l-1.963 8.76a3.53 3.53 0 01-4.499 2.597l-8.765-2.739a3.531 3.531 0 00-3.683 1.014l-5.98 6.674a3.532 3.532 0 01-5.26 0l-5.98-6.674a3.531 3.531 0 00-3.683-1.014l-8.764 2.739a3.53 3.53 0 01-4.5-2.598l-1.963-8.759a3.53 3.53 0 00-2.673-2.673l-8.775-1.967a3.531 3.531 0 01-2.602-4.485l2.706-8.789a3.53 3.53 0 00-1.01-3.662l-6.65-5.994a3.532 3.532 0 010-5.246l6.65-5.994a3.527 3.527 0 001.01-3.662l-2.706-8.79a3.53 3.53 0 012.602-4.484l8.775-1.967a3.53 3.53 0 002.673-2.673l1.964-8.76a3.53 3.53 0 014.499-2.596l8.764 2.738a3.53 3.53 0 003.683-1.014l5.98-6.674a3.531 3.531 0 015.26 0z" fill="url(#paint0_linear)"/><path d="M75.384 38.372l-26.83 26.86-9.242-9.216a4.416 4.416 0 00-6.235 6.252L45.44 74.601a4.413 4.413 0 006.24-.005l29.95-29.984a4.414 4.414 0 00-6.245-6.24z" fill="#fff"/><defs><linearGradient id="paint0_linear" x1="56.499" y1="7.057" x2="56.499" y2="102.412" gradientUnits="userSpaceOnUse"><stop stop-color="#458FFF"/><stop offset="1" stop-color="#1E68D6"/></linearGradient></defs></svg>